<svg version="1.0" xmlns="http://www.w3.org/2000/svg"
 width="128.000000pt" height="128.000000pt" viewBox="0 0 128.000000 128.000000"
 preserveAspectRatio="xMidYMid meet">

<g transform="translate(0.000000,128.000000) scale(0.100000,-0.100000)"
>
<path d="M500 1264 c-111 -23 -223 -86 -310 -173 -254 -253 -254 -648 0 -901
388 -388 1044 -140 1087 410 7 89 -15 212 -52 297 -123 277 -427 431 -725 367z
m184 -224 c27 -10 309 -229 339 -262 15 -18 17 -45 17 -245 0 -249 -5 -272
-61 -292 -21 -7 -141 -11 -341 -11 -328 0 -364 4 -387 48 -7 13 -11 101 -11
235 0 190 2 217 18 235 30 34 339 281 364 291 30 13 32 13 62 1z"/>
<path d="M610 1003 c-63 -43 -338 -274 -344 -289 -3 -8 -6 -102 -6 -208 0
-180 1 -195 21 -220 18 -22 28 -26 75 -26 l54 0 0 79 c0 65 4 84 23 112 35 53
57 59 207 59 116 0 139 -3 167 -20 45 -27 55 -51 61 -147 l5 -83 47 0 c32 0
56 6 71 19 24 19 24 23 27 218 2 109 1 213 -3 230 -5 27 -27 50 -125 127 -230
184 -230 184 -280 149z m75 -257 c61 -26 86 -117 45 -168 -67 -86 -200 -42
-200 66 0 49 21 83 64 102 40 17 49 17 91 0z"/>
<path d="M579 701 c-32 -33 -36 -58 -14 -100 16 -32 33 -41 79 -41 74 0 109
98 52 146 -38 33 -80 31 -117 -5z"/>
<path d="M465 455 c-23 -22 -25 -32 -25 -110 l0 -85 35 0 35 0 0 50 c0 28 5
50 10 50 6 0 10 -22 10 -50 l0 -50 105 0 105 0 0 50 c0 38 4 50 15 50 11 0 15
-12 15 -50 l0 -50 35 0 35 0 0 79 c0 71 -3 83 -26 110 l-26 31 -149 0 c-146 0
-151 -1 -174 -25z"/>
</g>
</svg>
