<svg version="1.0" xmlns="http://www.w3.org/2000/svg"
 width="128.000000pt" height="128.000000pt" viewBox="0 0 128.000000 128.000000"
 preserveAspectRatio="xMidYMid meet">

<g transform="translate(0.000000,128.000000) scale(0.100000,-0.100000)"
>
<path d="M525 1274 c-106 -15 -231 -51 -348 -99 -17 -7 -18 -6 -3 29 l15 36
-36 15 c-62 26 -53 37 -133 -166 l-19 -46 107 -43 c59 -23 112 -44 118 -47 11
-4 52 84 43 90 -2 1 -20 10 -38 18 l-35 16 89 32 c249 90 433 93 604 8 86 -42
186 -142 228 -228 33 -66 63 -171 63 -221 0 -27 2 -28 51 -28 l52 0 -6 63
c-23 244 -208 472 -447 548 -64 21 -232 33 -305 23z"/>
<path d="M496 1050 c-161 -51 -268 -190 -291 -377 -8 -63 8 -149 43 -223 33
-71 131 -169 203 -203 173 -81 359 -49 495 87 154 154 173 381 47 564 -99 144
-315 210 -497 152z m167 -88 c20 -22 56 -102 57 -124 0 -16 -10 -18 -80 -18
-70 0 -80 2 -80 18 1 37 59 142 80 142 4 0 14 -8 23 -18z m-183 -34 c-1 -2 -7
-25 -14 -53 l-13 -50 -47 -3 c-44 -3 -47 -2 -37 17 17 31 114 109 111 89z
m378 -34 c23 -20 47 -45 53 -55 10 -19 7 -20 -37 -17 l-47 3 -13 50 c-7 28
-13 51 -14 53 -1 10 23 -4 58 -34z m-418 -254 l0 -80 -64 0 -64 0 -7 40 c-4
22 -4 58 0 80 l7 40 64 0 64 0 0 -80z m300 0 l0 -80 -100 0 -100 0 0 80 0 80
100 0 100 0 0 -80z m235 40 c4 -22 4 -58 0 -80 l-7 -40 -64 0 -64 0 0 80 0 80
64 0 64 0 7 -40z m-509 -275 c7 -27 13 -51 14 -52 0 -2 -4 -3 -9 -3 -13 0
-111 90 -111 101 0 6 21 9 46 7 l47 -3 13 -50z m248 10 c-20 -56 -56 -110 -74
-110 -18 0 -54 54 -74 110 l-15 45 89 0 89 0 -15 -45z m197 27 c-13 -25 -88
-92 -102 -92 -6 0 -8 7 -5 16 3 9 9 28 12 42 11 51 12 52 59 52 41 0 45 -2 36
-18z"/>
<path d="M3 578 c23 -248 209 -474 452 -551 58 -18 92 -22 200 -21 158 1 282
28 448 99 17 7 18 6 3 -29 l-15 -36 36 -15 c62 -26 53 -37 133 166 l19 46
-107 43 c-59 23 -112 44 -118 47 -10 3 -44 -63 -44 -85 0 -4 16 -14 37 -21 44
-16 39 -20 -85 -62 -299 -102 -532 -68 -702 101 -41 42 -77 90 -97 131 -33 66
-63 171 -63 222 0 26 -2 27 -51 27 l-52 0 6 -62z"/>
</g>
</svg>
