<?xml version="1.0" encoding="utf-8"?>
<!DOCTYPE svg PUBLIC "-//W3C//DTD SVG 1.1//EN" "http://www.w3.org/Graphics/SVG/1.1/DTD/svg11.dtd">
<svg version="1.1" xmlns="http://www.w3.org/2000/svg" xmlns:xlink="http://www.w3.org/1999/xlink" x="0px" y="0px" viewBox="0 0 256 256" enable-background="new 0 0 256 256" xml:space="preserve">
<g><g><g><path  d="M45.6,10C26,10,10,26,10,45.6v164.7C10,230,26,246,45.6,246h164.7c19.7,0,35.6-16,35.6-35.6V45.6C246,26,230.1,10,210.4,10H45.6z M74.5,39.4c12.1,0,19.6,8,19.8,18.4c0,10.2-7.7,18.4-20.1,18.4H74c-11.9,0-19.6-8.2-19.6-18.4C54.4,47.3,62.3,39.4,74.5,39.4L74.5,39.4z M179,88.3c23.3,0,40.8,15.2,40.8,48v61.2h-35.5v-57.1c0-14.4-5.2-24.1-18-24.1c-9.8,0-15.6,6.6-18.2,13c-0.9,2.3-1.2,5.5-1.2,8.7v59.6h-35.5c0,0,0.5-96.7,0-106.7h35.5V106C151.8,98.7,160.2,88.3,179,88.3z M56.5,90.8H92v106.7H56.5V90.8z"/></g><g></g><g></g><g></g><g></g><g></g><g></g><g></g><g></g><g></g><g></g><g></g><g></g><g></g><g></g><g></g></g></g>
</svg>